# xmcd CD database file
#
# Track frame offsets:
#	150
#	30117
#	55870
#	72677
#	94685
#	111187
#	135542
#	146957
#	168712
#	187292
#	210340
#
# Disc length: 3003 seconds
#
# Revision: 15
# Processed by: cddbd v1.5.2PL0 Copyright (c) Steve Scherf et al.
# Submitted via: CDex 1.51
#
DISCID=a50bb90b
DTITLE=Tom Waits - Small Change
DYEAR=1976
DGENRE=Rock
TTITLE0=Tom Traubert's Blues
TTITLE1=Step Right Up
TTITLE2=Jitterbug Boy
TTITLE3=I Wish I Was In New Orleans
TTITLE4=The Piano Has Been Drinking (Not Me)
TTITLE5=Invitation To The Blues
TTITLE6=Pasties And A G-String
TTITLE7=Bad Liver And A Broken Heart
TTITLE8=The One That Got Away
TTITLE9=Small Change
TTITLE10=I Can't Wait To Get Off Work
EXTD=All selections written by Tom Waits.\nTom Waits: piano, vocals\nLew Tabackin: tenor sax\nJim Hughart: bass\nShelly Manne: drums\nStrings arranged and conducted by Jerry Yester.\nviolins: Harry Bluestone (concertmaster), Israel Baker, Nathan Kaproff,
EXTD=Nathan Ross, George Kast, Murray Addler, Marvin Limonick, Alfred Lustgarten, Sheldon Sanov\nviolas: Sam Boghossian, David Schwartz, Allan Harshman\ncelli: Ed Lustgarten (orchestra manager), Kathleen Lustgarten, Ray Kelley, Jesse Ehrlich\nRecorded d
EXTD=irect to 2-track tape by Bones Howe at Wally Heider Recording, Hollywood US-CA, 1976-07-16,19/21,29.\nMastering: Terry Dunavan, Elektra Sound Recorders, Los Angeles US-CA\nProduced by Bones Howe.\nOriginally released as Asylum LP 7E-1078 (1976-10).\
EXTD=nCD mastering by Stephen Innocenzi, Atlantic Studios, New York US-NY.\nCD: Elektra/Asylum 1078-2 (1990-10-25), UPC 075596061223. YEAR: 1976
EXTT0=(Tom Waits]\nsubtitle: Four Sheets to the Wind in Copenhagen
EXTT1=(Tom Waits)
EXTT2=(Tom Waits]\nsubtitle: Sharing a Curbstone with Chuck E. Weiss, Robert Marchese, Paul Body and the Mug and Artie
EXTT3=(Tom Waits]\nsubtitle: In the Ninth Ward
EXTT4=(Tom Waits]\nsubtitle: An Evening with Pete King
EXTT5=(Tom Waits)
EXTT6=(Tom Waits]\nsubtitle: At the Two o'Clock Club
EXTT7=(Tom Waits]\nsubtitle: In Lowell
EXTT8=(Tom Waits)
EXTT9=(Tom Waits]\nsubtitle: Got Rained On with His Own .38
EXTT10=(Tom Waits]\nsubtitle: And See My Baby on Montgomery Avenue
PLAYORDER=
